<?xml version="1.0" encoding="UTF-8" standalone="no"?>
<!-- Generator: Adobe Illustrator 19.1.0, SVG Export Plug-In . SVG Version: 6.00 Build 0)  -->

<svg
   xmlns:dc="http://purl.org/dc/elements/1.1/"
   xmlns:cc="http://creativecommons.org/ns#"
   xmlns:rdf="http://www.w3.org/1999/02/22-rdf-syntax-ns#"
   xmlns:svg="http://www.w3.org/2000/svg"
   xmlns="http://www.w3.org/2000/svg"
   xmlns:sodipodi="http://sodipodi.sourceforge.net/DTD/sodipodi-0.dtd"
   xmlns:inkscape="http://www.inkscape.org/namespaces/inkscape"
   version="1.1"
   id="Layer_1"
   x="0px"
   y="0px"
   width="64px"
   height="16px"
   viewBox="0 0 64 16"
   enable-background="new 0 0 64 16"
   xml:space="preserve"
   inkscape:version="0.91 r13725"
   sodipodi:docname="cd-icons.svg"><metadata
     id="metadata25"><rdf:RDF><cc:Work
         rdf:about=""><dc:format>image/svg+xml</dc:format><dc:type
           rdf:resource="http://purl.org/dc/dcmitype/StillImage" /></cc:Work></rdf:RDF></metadata><defs
     id="defs23" /><sodipodi:namedview
     pagecolor="#ffffff"
     bordercolor="#666666"
     borderopacity="1"
     objecttolerance="10"
     gridtolerance="10"
     guidetolerance="10"
     inkscape:pageopacity="0"
     inkscape:pageshadow="2"
     inkscape:window-width="1920"
     inkscape:window-height="1017"
     id="namedview21"
     showgrid="false"
     inkscape:zoom="4.5"
     inkscape:cx="-0.77777778"
     inkscape:cy="-9.7777778"
     inkscape:window-x="-8"
     inkscape:window-y="-8"
     inkscape:window-maximized="1"
     inkscape:current-layer="Layer_1" /><g
     transform="translate(0, 0)"
     id="g3"
     style="fill:#0275d8;fill-opacity:1"><polygon
       fill="#FFFFFF"
       points="8,12.6000004 0.3,4.9000001 1.7,3.4000001 8,9.6999998 14.3000002,3.4000001 15.6999998,4.9000001     "
       id="polygon5"
       style="fill:#0275d8;fill-opacity:1" /></g><g
     transform="translate(16, 0)"
     id="g7"><path
       fill="#6C7079"
       d="M15,3H8.3999996L5.6999998,0.3C5.5,0.1,5.3000002,0,5,0H1C0.4,0,0,0.4,0,1v14c0,0.6000004,0.4,1,1,1h14   c0.6000004,0,1-0.3999996,1-1V4C16,3.4000001,15.6000004,3,15,3z"
       id="path9" /></g><g
     transform="translate(32, 0)"
     id="g11"><path
       fill="#6C7079"
       d="M15.8000002,7.4000001C15.6000004,7.1999998,15.3000002,7,15,7H4   C3.5999999,7,3.2,7.1999998,3.0999999,7.5999999l-3,7.0000005C-0.1,15.1999998,0.1,16,1,16h11   c0.3999996,0,0.8000002-0.1999998,0.8999996-0.6000004l3-7C16.1000004,8.1000004,16,7.6999998,15.8000002,7.4000001z"
       id="path13" /><path
       fill="#6C7079"
       d="M1.2,6.8000002C1.7,5.6999998,2.8,5,4,5h9V3c0-0.5999999-0.3999996-1-1-1H6.4000001L4.6999998,0.3   C4.5,0.1,4.3000002,0,4,0H1C0.4,0,0,0.4,0,1v8.6999998L1.2,6.8000002z"
       id="path15" /></g><g
     transform="translate(48, 0)"
     id="g17"><path
       fill="#6C7079"
       d="M15,0H1C0.4,0,0,0.4,0,1v14c0,0.6000004,0.4,1,1,1h14c0.6000004,0,1-0.3999996,1-1V1   C16,0.4,15.6000004,0,15,0z M6,4c0.5999999,0,1,0.4000001,1,1S6.5999999,6,6,6S5,5.5999999,5,5S5.4000001,4,6,4z M3,12l2-4l2,2l3-4   l3,6H3z"
       id="path19" /></g></svg>