<?xml version="1.0" standalone="no"?>
<!DOCTYPE svg PUBLIC "-//W3C//DTD SVG 20010904//EN"
 "http://www.w3.org/TR/2001/REC-SVG-20010904/DTD/svg10.dtd">
<svg version="1.0" xmlns="http://www.w3.org/2000/svg"
 width="250.000000pt" height="250.000000pt" viewBox="0 0 250.000000 250.000000"
 preserveAspectRatio="xMidYMid meet">
<metadata>
Created by potrace 1.11, written by Peter Selinger 2001-2013
</metadata>
<g transform="translate(0.000000,250.000000) scale(0.100000,-0.100000)"
fill="#000000" stroke="none">
<path d="M1156 2402 c-3 -5 -17 -8 -31 -7 -14 2 -25 0 -25 -5 0 -4 -11 -6 -25
-4 -14 1 -31 -3 -38 -9 -6 -7 -16 -12 -22 -13 -24 -1 -65 -17 -65 -25 0 -5 -4
-8 -9 -6 -13 3 -101 -54 -101 -66 0 -6 -3 -8 -6 -4 -8 7 -114 -96 -114 -110 0
-6 -7 -13 -15 -17 -8 -3 -15 -12 -15 -21 0 -8 -5 -15 -11 -15 -5 0 -7 -4 -4
-10 3 -5 3 -10 -2 -10 -4 0 -15 -19 -24 -43 -36 -91 -36 -90 -43 -142 -3 -16
-5 -32 -6 -35 -1 -3 -2 -14 -1 -26 2 -19 -4 -20 -76 -22 -67 -1 -103 -5 -123
-12 -3 -1 -8 -2 -12 -1 -5 0 -8 -4 -8 -10 0 -5 -4 -7 -10 -4 -5 3 -24 -2 -42
-12 -18 -9 -36 -16 -40 -15 -5 1 -8 -3 -8 -8 0 -6 -4 -10 -10 -10 -12 0 -50
-31 -104 -86 -39 -40 -104 -149 -99 -166 2 -4 -2 -8 -9 -8 -6 0 -9 -3 -5 -6 3
-3 -1 -26 -8 -51 -8 -28 -12 -76 -10 -126 5 -111 8 -127 18 -127 4 0 6 -4 2
-10 -3 -5 -2 -17 4 -27 5 -10 19 -39 31 -65 13 -27 27 -48 32 -48 4 0 8 -6 8
-12 1 -12 55 -78 64 -78 2 0 18 -13 36 -30 18 -16 38 -30 45 -30 7 0 18 -7 25
-15 7 -9 19 -14 27 -11 7 3 13 2 13 -2 0 -13 67 -33 118 -37 26 -2 47 -4 47
-5 0 -1 21 -2 48 -3 26 -1 47 1 47 5 0 3 9 4 20 1 18 -5 18 -7 3 -29 -8 -13
-12 -24 -8 -24 5 0 -1 -8 -11 -18 -25 -22 -116 -162 -107 -162 5 0 2 -4 -5 -8
-9 -7 -7 -16 11 -43 13 -19 29 -33 35 -31 7 1 12 -2 12 -7 0 -5 13 -7 29 -6
30 3 61 25 61 44 0 6 5 11 10 11 6 0 10 5 10 10 0 6 5 16 10 23 37 43 117 166
113 171 -4 3 -2 6 3 6 5 0 18 14 28 30 15 26 23 30 47 26 16 -2 29 0 29 5 0 6
5 7 10 4 14 -9 110 -12 104 -4 -2 4 12 3 30 -1 22 -5 39 -3 45 3 8 8 11 8 11
0 0 -6 9 -9 20 -6 25 7 25 2 0 -42 -19 -34 -19 -38 -4 -70 14 -30 30 -40 81
-51 7 -1 23 9 35 23 13 14 31 34 41 44 9 10 16 20 15 22 -2 1 11 21 28 44 21
29 34 39 43 33 8 -4 27 -4 42 0 16 5 29 6 29 2 0 -4 16 -7 35 -8 18 0 32 3 29
8 -3 4 5 4 18 -1 13 -4 35 -5 50 0 16 4 28 4 28 0 0 -3 9 -7 20 -7 11 0 20 4
20 9 0 5 7 4 15 -3 13 -11 13 -15 3 -21 -7 -5 -10 -9 -5 -9 4 0 -1 -9 -10 -19
-35 -38 -42 -49 -36 -55 4 -3 2 -6 -4 -6 -10 0 -34 -42 -39 -69 -4 -20 24 -59
54 -74 27 -13 82 -3 82 14 0 4 6 14 14 21 7 8 21 28 30 46 9 18 21 32 27 32 6
0 8 4 5 9 -4 5 -3 11 1 13 5 1 22 23 38 48 43 64 52 72 75 65 12 -4 20 -2 20
5 0 7 5 8 17 2 9 -6 29 -6 45 -2 16 5 28 5 28 0 0 -5 6 -8 13 -5 6 2 30 6 52
9 43 6 78 13 83 16 1 2 5 3 10 4 22 4 82 33 117 57 75 51 132 115 166 185 13
27 28 52 34 56 6 5 5 8 -3 8 -9 0 -8 7 4 25 9 14 13 25 9 25 -4 0 -3 6 3 13
15 18 9 250 -6 255 -7 2 -10 8 -7 12 5 8 -22 78 -35 90 -3 3 -12 18 -20 34
-19 38 -107 127 -148 151 -18 11 -32 23 -32 28 0 4 -4 6 -9 2 -6 -3 -24 3 -42
14 -17 11 -38 17 -45 14 -8 -3 -14 -1 -14 4 0 14 -140 23 -182 12 -30 -8 -30
-8 -31 59 -1 12 -4 22 -8 22 -4 0 -6 8 -4 18 1 9 -2 22 -7 29 -5 7 -7 16 -4
21 3 5 -6 30 -19 55 -13 26 -22 47 -19 47 4 0 -35 61 -61 95 -27 35 -118 125
-127 125 -5 0 -24 11 -42 25 -48 36 -91 54 -201 83 -75 20 -239 29 -249 14z"/>
<path d="M838 511 c-17 -6 -78 -78 -78 -92 0 -4 -6 -14 -12 -21 -7 -7 -26 -33
-43 -58 -16 -25 -34 -48 -40 -52 -5 -4 -6 -8 -2 -8 5 0 2 -7 -5 -15 -29 -33
-38 -45 -33 -45 4 0 0 -6 -8 -14 -34 -34 15 -116 69 -116 22 0 102 65 96 78
-2 4 8 21 21 37 13 17 32 45 42 63 11 17 23 32 28 32 4 0 5 5 2 10 -3 6 -1 10
4 10 6 0 11 7 11 15 0 8 4 15 8 15 15 0 50 75 46 98 -4 23 -34 62 -34 45 0 -4
-5 -1 -10 7 -10 16 -35 21 -62 11z"/>
<path d="M1241 504 c-18 -7 -30 -18 -27 -23 4 -5 2 -11 -3 -13 -12 -4 -81 -96
-81 -107 0 -5 -5 -11 -10 -13 -17 -5 -20 -47 -4 -75 7 -16 14 -23 14 -18 0 6
4 5 8 -1 9 -15 41 -20 67 -11 11 4 35 29 54 56 18 27 42 59 52 70 11 12 16 21
12 21 -4 0 -2 4 4 8 23 14 21 75 -2 93 -32 25 -49 28 -84 13z"/>
</g>
</svg>
